<svg width="21" height="20" viewBox="0 0 21 20" fill="none" xmlns="http://www.w3.org/2000/svg">
<path d="M20.3148 8.24289C20.3148 3.69788 15.7584 0 10.1574 0C4.55713 0 0 3.69788 0 8.24289C0 12.3177 3.61371 15.73 8.49469 16.3754C8.82553 16.4465 9.27585 16.5935 9.38977 16.8762C9.49203 17.1328 9.4567 17.5352 9.42255 17.7947C9.42255 17.7947 9.30328 18.5112 9.27747 18.6642C9.23331 18.9209 9.07333 19.6685 10.1574 19.2117C11.2415 18.7549 16.0069 15.7672 18.1381 13.3145C19.6102 11.7002 20.3148 10.0619 20.3148 8.24289Z" fill="white"/>
<path d="M8.09351 6.04669H7.38092C7.27167 6.04669 7.18311 6.13504 7.18311 6.24408V10.6701C7.18311 10.7791 7.27167 10.8674 7.38092 10.8674H8.09351C8.20255 10.8674 8.29135 10.7791 8.29135 10.6701V6.24408C8.29135 6.13504 8.20255 6.04669 8.09351 6.04669Z" fill="#00B900"/>
<path d="M12.9975 6.04669H12.2849C12.1756 6.04669 12.0871 6.13504 12.0871 6.24408V8.87344L10.0589 6.13458C10.0543 6.12738 10.0489 6.12085 10.0435 6.11435L10.0422 6.11319C10.0384 6.10876 10.0342 6.1048 10.0303 6.10086L10.0266 6.0976C10.0233 6.09457 10.0198 6.09155 10.0161 6.08878L10.011 6.08484C10.0075 6.08224 10.0043 6.07993 10.0008 6.07761L9.99472 6.07413C9.99124 6.07202 9.98776 6.06995 9.98428 6.06833L9.97797 6.06528C9.97427 6.06366 9.97055 6.0618 9.96661 6.06042L9.96008 6.05807C9.95636 6.0567 9.95242 6.05551 9.94846 6.05435L9.9415 6.05249C9.93777 6.05157 9.93405 6.05087 9.93011 6.04996L9.92172 6.04877C9.91846 6.04831 9.91498 6.04785 9.91125 6.04761C9.90799 6.04715 9.90451 6.04715 9.90103 6.04694L9.89432 6.04669H9.18173C9.07269 6.04669 8.98389 6.13504 8.98389 6.24408V10.6701C8.98389 10.7791 9.07269 10.8674 9.18173 10.8674H9.89432C10.0036 10.8674 10.0922 10.7791 10.0922 10.6701V8.04138L12.1229 10.784C12.1368 10.8037 12.1543 10.8198 12.1731 10.8328L12.1752 10.8342C12.1791 10.837 12.1831 10.8396 12.1873 10.8416L12.1931 10.8447C12.1961 10.8463 12.1991 10.8479 12.2024 10.8493C12.2057 10.8507 12.2087 10.8521 12.2122 10.8535L12.218 10.8556C12.2226 10.8572 12.227 10.8586 12.2314 10.86L12.2343 10.8607C12.2503 10.8649 12.2675 10.8674 12.2849 10.8674H12.9975C13.1068 10.8674 13.1953 10.7791 13.1953 10.6701V6.24408C13.1953 6.13504 13.1068 6.04669 12.9975 6.04669Z" fill="#00B900"/>
<path d="M6.37592 9.75919H4.44003V6.24429C4.44003 6.13504 4.35168 6.04645 4.2424 6.04645H3.52988C3.42059 6.04645 3.33203 6.13504 3.33203 6.24429V10.6696C3.33203 10.7229 3.35318 10.771 3.38736 10.8065L3.39014 10.8096L3.39291 10.8123C3.4285 10.8465 3.47641 10.8675 3.52963 10.8675H6.37592C6.48517 10.8675 6.57352 10.7789 6.57352 10.6696V9.95703C6.57352 9.84778 6.48517 9.75919 6.37592 9.75919Z" fill="#00B900"/>
<path d="M16.9318 7.15494C17.0408 7.15494 17.1292 7.06635 17.1292 6.95709V6.24454C17.1292 6.13528 17.0408 6.04669 16.9318 6.04669H14.0855C14.0321 6.04669 13.9837 6.06784 13.9479 6.10248L13.9458 6.10458L13.9425 6.10806C13.9086 6.1434 13.8877 6.19131 13.8877 6.24432V10.6696C13.8877 10.7228 13.9088 10.7712 13.943 10.8065L13.9458 10.8096L13.9486 10.8121C13.9842 10.8463 14.032 10.8674 14.0853 10.8674H16.9318C17.0408 10.8674 17.1292 10.7789 17.1292 10.6696V9.95706C17.1292 9.84778 17.0408 9.75922 16.9318 9.75922H14.9959V9.01108H16.9318C17.0408 9.01108 17.1292 8.92249 17.1292 8.81323V8.10092C17.1292 7.99142 17.0408 7.90283 16.9318 7.90283H14.9959V7.15494H16.9318Z" fill="#00B900"/>
</svg>
