<svg width="21" height="18" viewBox="0 0 21 18" fill="none" xmlns="http://www.w3.org/2000/svg">
<path d="M6.60141 17.0594C14.5228 17.0594 18.8546 10.4968 18.8546 4.8062C18.8546 4.61974 18.8508 4.43407 18.8422 4.24946C19.683 3.64164 20.414 2.88312 20.9907 2.01965C20.219 2.36237 19.3886 2.59344 18.5175 2.69756C19.4066 2.16457 20.0893 1.32091 20.4112 0.315369C19.5789 0.808662 18.6576 1.16743 17.6767 1.36063C16.8908 0.523598 15.7716 0 14.5332 0C12.1547 0 10.226 1.92871 10.226 4.30628C10.226 4.64432 10.2639 4.97287 10.3377 5.28822C6.75859 5.10831 3.58479 3.39454 1.46095 0.78875C1.09076 1.42503 0.877747 2.16457 0.877747 2.95324C0.877747 4.44743 1.63803 5.76632 2.79411 6.53803C2.08783 6.51628 1.4241 6.32216 0.843658 5.99923C0.842728 6.0172 0.842728 6.03526 0.842728 6.05415C0.842728 8.14002 2.32736 9.88133 4.29771 10.2762C3.936 10.3746 3.5554 10.4277 3.16246 10.4277C2.88504 10.4277 2.61519 10.4002 2.35289 10.35C2.90117 12.061 4.49092 13.3061 6.37605 13.3412C4.90182 14.4963 3.04507 15.1847 1.0273 15.1847C0.679855 15.1847 0.337112 15.1648 0 15.125C1.90596 16.3464 4.16901 17.0594 6.60141 17.0594Z" fill="white"/>
</svg>
