<svg width="22" height="20" viewBox="0 0 22 20" fill="none" xmlns="http://www.w3.org/2000/svg">
<path d="M19.5787 0H2.08272C0.946598 0 0 0.870918 0 2.00704V8.48289C0 14.3528 4.84724 19.238 10.8308 19.238C16.7764 19.238 21.5859 14.3528 21.5859 8.48289V2.00704C21.5859 0.870918 20.6769 0 19.5787 0ZM16.9658 8.02835L11.8154 12.8758C11.5504 13.1788 11.1338 13.2924 10.8308 13.2924C10.452 13.2924 10.0733 13.1788 9.77038 12.8758L4.69587 8.02835C4.16565 7.4604 4.08996 6.51359 4.69587 5.90768C5.26383 5.37747 6.21063 5.30177 6.77859 5.90768L10.8308 9.80833L14.9585 5.90768C15.4887 5.30177 16.4355 5.37747 16.9658 5.90768C17.496 6.51359 17.496 7.4604 16.9658 8.02835Z" fill="white"/>
</svg>
